<svg xmlns="http://www.w3.org/2000/svg" width="15" height="13" viewBox="0 0 15 13" fill="none">
<mask id="mask0_9_225" style="mask-type:alpha" maskUnits="userSpaceOnUse" x="0" y="0" width="15" height="13">
<rect x="0.5" y="0.5" width="13.0833" height="12" fill="#D9D9D9" stroke="black"/>
</mask>
<g mask="url(#mask0_9_225)">
<path d="M10.0033 8.17728C9.36639 8.7652 8.55693 9.46781 7.57323 10.286C7.57309 10.2861 7.57295 10.2862 7.57281 10.2863L7.04166 10.7259L6.51051 10.2863C6.51029 10.2861 6.51008 10.2859 6.50986 10.2858C5.52626 9.4677 4.71689 8.76515 4.08002 8.17728C3.44543 7.5915 2.9509 7.07492 2.59004 6.62651L2.20052 6.93999L2.59004 6.62651C2.22852 6.17728 1.99495 5.78725 1.86813 5.45495C1.73774 5.11327 1.67361 4.76736 1.67361 4.41447C1.67361 3.7035 1.92476 3.12864 2.43697 2.65583C2.95152 2.18086 3.59424 1.9353 4.40104 1.9353C4.84249 1.9353 5.25901 2.02108 5.65506 2.19221C6.05175 2.36361 6.38974 2.60297 6.67385 2.9115L7.04166 3.31093L7.40948 2.9115C7.69358 2.60297 8.03157 2.36361 8.42826 2.19221C8.82431 2.02108 9.24084 1.9353 9.68229 1.9353C10.4891 1.9353 11.1318 2.18086 11.6464 2.65583C12.1586 3.12864 12.4097 3.7035 12.4097 4.41447C12.4097 4.76736 12.3456 5.11327 12.2152 5.45495C12.0884 5.78725 11.8548 6.17728 11.4933 6.62651C11.1324 7.07492 10.6379 7.5915 10.0033 8.17728Z" stroke="black"/>
</g>
</svg>