<?xml version="1.0" encoding="UTF-8"?>
<svg id="Layer_8" data-name="Layer 8" xmlns="http://www.w3.org/2000/svg" viewBox="0 0 584.81 319.66">
  <defs>
    <style>
      @font-face {
        font-family: 'Pretendard-Regular';
        src: url('https://cdn.jsdelivr.net/gh/Project-Noonnu/noonfonts_2107@1.1/Pretendard-Regular.woff') format('woff');
        font-weight: 600;
        font-style: normal;
      }

      @font-face {
        font-family: 'NPSfontBold';
        src: url('https://cdn.jsdelivr.net/gh/projectnoonnu/noonfonts_2310@1.0/NPSfontBold.woff2') format('woff2');
        font-weight: 800;
        font-style: normal;
      }

      .cls-1 {
        font-family: NPSfontBold, 'NPS font';
        font-size: 98px;
        letter-spacing: .2em;
        font-weight: 800;
      }

      .cls-2 {
        fill: #fff;
      }

      .cls-2, .cls-3, .cls-4 {
        stroke: #231f20;
        stroke-miterlimit: 10;
      }

      .cls-5 {
        fill: #aaa3d0;
      }

      .cls-5, .cls-6 {
        stroke-width: 0px;
      }

      .cls-4, .cls-6 {
        fill: #231f20;
      }

      .cls-7 {
        letter-spacing: .34em;
      }

      .cls-8 {
        letter-spacing: .42em;
      }

      .cls-9 {
        letter-spacing: .42em;
      }

      .cls-10 {
        font-family: PretendardVariable-ExtraLight, 'Pretendard Variable';
        font-size: 20px;
        font-variation-settings: 'wght' 500;
        letter-spacing: .42em;
        font-weight: 700;
      }
    </style>
  </defs>
  <path class="cls-5" d="m562.52,105.12h-206.73c-1.37,0-2.48-1.11-2.48-2.48s1.11-2.48,2.48-2.48h206.73c1.37,0,2.48,1.11,2.48,2.48s-1.11,2.48-2.48,2.48Z"/>
  <path class="cls-4" d="m569.7,116.83c-4.98,0-9.57-2.53-12.25-6.66h-202.97c-3.94,0-7.32-2.74-7.87-6.36-.3-2.01.32-4.12,1.72-5.79,1.5-1.8,3.72-2.87,6.09-2.94h202.54c2.56-4.57,7.43-7.46,12.73-7.46,8.06,0,14.61,6.55,14.61,14.61s-6.56,14.61-14.61,14.61Zm-215.22-18.04c-1.25.04-2.46.62-3.29,1.6-.72.86-1.04,1.9-.9,2.85.24,1.57,1.87,3.19,4.19,3.2h204.02c.68,0,1.31.37,1.64.97,1.91,3.51,5.57,5.69,9.56,5.69,6.01,0,10.89-4.89,10.89-10.89s-4.89-10.88-10.89-10.88c-4.25,0-8.13,2.5-9.89,6.37-.3.66-.96,1.09-1.69,1.09h-203.63Z"/>
  <path class="cls-6" d="m369.9,109.24c-.51,0-.93-.42-.93-.93v-5.97c0-.51.42-.93.93-.93s.93.42.93.93v5.97c0,.51-.42.93-.93.93Z"/>
  <path class="cls-6" d="m392.63,109.24c-.51,0-.93-.42-.93-.93v-5.97c0-.51.42-.93.93-.93s.93.42.93.93v5.97c0,.51-.42.93-.93.93Z"/>
  <path class="cls-6" d="m402.64,109.61c-.51,0-.93-.42-.93-.93v-5.12c0-.51.42-.93.93-.93s.93.42.93.93v5.12c0,.51-.42.93-.93.93Z"/>
  <path class="cls-6" d="m415.13,109.87c-.51,0-.93-.42-.93-.93v-5.97c0-.51.42-.93.93-.93s.93.42.93.93v5.97c0,.51-.42.93-.93.93Z"/>
  <path class="cls-6" d="m437.51,109.42c-.51,0-.93-.42-.93-.93v-5.97c0-.51.42-.93.93-.93s.93.42.93.93v5.97c0,.51-.42.93-.93.93Z"/>
  <path class="cls-6" d="m462.5,109.24c-.51,0-.93-.42-.93-.93v-5.97c0-.51.42-.93.93-.93s.93.42.93.93v5.97c0,.51-.42.93-.93.93Z"/>
  <path class="cls-6" d="m488.33,109.24c-.51,0-.93-.42-.93-.93v-5.97c0-.51.42-.93.93-.93s.93.42.93.93v5.97c0,.51-.42.93-.93.93Z"/>
  <path class="cls-6" d="m507.73,109.87c-.51,0-.93-.42-.93-.93v-5.97c0-.51.42-.93.93-.93s.93.42.93.93v5.97c0,.51-.42.93-.93.93Z"/>
  <path class="cls-6" d="m530.11,109.42c-.51,0-.93-.42-.93-.93v-5.97c0-.51.42-.93.93-.93s.93.42.93.93v5.97c0,.51-.42.93-.93.93Z"/>
  <path class="cls-6" d="m540.12,109.8c-.51,0-.93-.42-.93-.93v-4.26c0-.51.42-.93.93-.93s.93.42.93.93v4.26c0,.51-.42.93-.93.93Z"/>
  <path class="cls-6" d="m379.91,109.61c-.51,0-.93-.42-.93-.93v-3.99c0-.51.42-.93.93-.93s.93.42.93.93v3.99c0,.51-.42.93-.93.93Z"/>
  <path class="cls-6" d="m425.14,109.24c-.51,0-.93-.42-.93-.93v-3.15c0-.51.42-.93.93-.93s.93.42.93.93v3.15c0,.51-.42.93-.93.93Z"/>
  <path class="cls-6" d="m447.52,109.61c-.51,0-.93-.42-.93-.93v-4.05c0-.51.42-.93.93-.93s.93.42.93.93v4.05c0,.51-.42.93-.93.93Z"/>
  <path class="cls-6" d="m472.51,109.61c-.51,0-.93-.42-.93-.93v-4.11c0-.51.42-.93.93-.93s.93.42.93.93v4.11c0,.51-.42.93-.93.93Z"/>
  <path class="cls-6" d="m495.24,109.67c-.51,0-.93-.42-.93-.93v-4.26c0-.51.42-.93.93-.93s.93.42.93.93v4.26c0,.51-.42.93-.93.93Z"/>
  <path class="cls-6" d="m517.74,109.4c-.51,0-.93-.42-.93-.93v-4.26c0-.51.42-.93.93-.93s.93.42.93.93v4.26c0,.51-.42.93-.93.93Z"/>
  <path class="cls-2" d="m421.08,196.75c0,3.64,2.95,6.58,6.58,6.58h69.68c3.64,0,6.58-2.95,6.58-6.58v-60.17h24.9c3.17,0,5.73-2.57,5.73-5.73v-33.68h-144.12v33.68c0,3.17,2.57,5.73,5.73,5.73m91.98-38.79c-.2,14.07-11.64,25.41-25.72,25.41s-25.52-11.34-25.72-25.41c0-.12,0-.25,0-.38h51.45c0,.13,0,.26,0,.38Z"/>
  <path class="cls-4" d="m423.87,196.75c0,2.6,2.12,4.72,4.72,4.72h69.68c2.6,0,4.72-2.12,4.72-4.72v-60.17c0-1.03.83-1.86,1.86-1.86h24.9c2.14,0,3.87-1.74,3.87-3.87v-31.82h-42.72c-.85,14.46-12.95,26.03-27.53,26.03s-26.69-11.57-27.54-26.03h-42.6v31.82c0,2.14,1.74,3.87,3.87,3.87v3.72c-4.19,0-7.6-3.41-7.6-7.6v-33.68c0-1.03.83-1.86,1.86-1.86h144.12c1.03,0,1.86.83,1.86,1.86v33.68c0,4.19-3.41,7.6-7.6,7.6h-23.04v58.31c0,4.66-3.79,8.44-8.44,8.44h-69.68c-4.66,0-8.44-3.79-8.44-8.44m19.43-97.49c.95,12.3,11.33,22.07,23.79,22.07s22.83-9.77,23.79-22.07h-47.58Z"/>
  <path class="cls-3" d="m479.1,177.48c-13.55,0-26.11-5.51-36.33-15.93-7.67-7.83-11.3-15.57-11.45-15.9-.43-.93-.02-2.04.91-2.47.93-.43,2.04-.02,2.47.91h0c.14.3,14.11,29.67,44.4,29.67,1.03,0,1.86.83,1.86,1.86s-.83,1.86-1.86,1.86Z"/>
  <text class="cls-1" transform="translate(0 233.52)"><tspan x="0" y="0">옷늘날씨</tspan></text>
  <circle class="cls-5" cx="569.24" cy="102.34" r="8.43"/>
  <text class="cls-10" transform="translate(171.09 133.27)">
  <!-- <tspan class="cls-9" x="0" y="0">WE</tspan><tspan class="cls-7" x="22.79" y="0">A</tspan><tspan class="cls-8" x="32.27" y="0">THERFIT</tspan> -->
  WEATHERFIT
  </text>
</svg>