<?xml version="1.0" encoding="UTF-8"?>
<svg id="Layer_1" data-name="Layer 1" xmlns="http://www.w3.org/2000/svg" viewBox="0 0 237.77 231.29">
  <defs>
    <style>
      @font-face {
        font-family: 'Pretendard-Regular';
        src: url('https://cdn.jsdelivr.net/gh/Project-Noonnu/noonfonts_2107@1.1/Pretendard-Regular.woff') format('woff');
        font-weight: 400;
        font-style: normal;
      }

      @font-face {
        font-family: 'NPSfontBold';
        src: url('https://cdn.jsdelivr.net/gh/projectnoonnu/noonfonts_2310@1.0/NPSfontBold.woff2') format('woff2');
        font-weight: 800;
        font-style: normal;
      }

      .cls-1 {
        font-family: NPSfontBold, 'NPS font';
        font-size: 58px;
        letter-spacing: -.02em;
      }

      .cls-2 {
        fill: #aaa3d0;
      }

      .cls-2, .cls-3, .cls-4, .cls-5 {
        stroke-width: 0px;
      }

      .cls-6 {
        letter-spacing: .36em;
      }

      .cls-7 {
        font-family: PretendardVariable-ExtraLight, 'Pretendard Variable';
        font-size: 10px;
        font-variation-settings: 'wght' 200;
        font-weight: 200;
      }

      .cls-4 {
        fill: #fff;
      }

      .cls-5 {
        fill: #231f20;
      }

      .cls-8 {
        letter-spacing: .27em;
      }
    </style>
  </defs>
  <text class="cls-1" transform="translate(11.79 198.44)"><tspan x="0" y="0">옷늘날씨</tspan></text>
  <g>
    <path class="cls-5" d="m223.16,29.22c-4.98,0-9.57-2.53-12.25-6.66H7.94c-3.94,0-7.32-2.74-7.87-6.36-.3-2.01.32-4.12,1.72-5.79,1.5-1.8,3.72-2.87,6.09-2.94h202.54c2.56-4.57,7.43-7.46,12.73-7.46,8.06,0,14.61,6.55,14.61,14.61s-6.56,14.61-14.61,14.61ZM7.94,11.18c-1.25.04-2.46.62-3.29,1.6-.72.86-1.04,1.9-.9,2.85.24,1.57,1.87,3.19,4.19,3.2h204.02c.68,0,1.31.37,1.64.97,1.91,3.51,5.57,5.69,9.56,5.69,6.01,0,10.89-4.89,10.89-10.89s-4.89-10.88-10.89-10.88c-4.25,0-8.13,2.5-9.89,6.37-.3.66-.96,1.09-1.69,1.09H7.94Z"/>
    <path class="cls-2" d="m216.43,17.21H9.7c-1.37,0-2.48-1.11-2.48-2.48s1.11-2.48,2.48-2.48h206.73c1.37,0,2.48,1.11,2.48,2.48s-1.11,2.48-2.48,2.48Z"/>
    <circle class="cls-2" cx="222.98" cy="14.72" r="9.12"/>
    <path class="cls-5" d="m23.35,21.63c-.51,0-.93-.42-.93-.93v-5.97c0-.51.42-.93.93-.93s.93.42.93.93v5.97c0,.51-.42.93-.93.93Z"/>
    <path class="cls-5" d="m46.08,21.63c-.51,0-.93-.42-.93-.93v-5.97c0-.51.42-.93.93-.93s.93.42.93.93v5.97c0,.51-.42.93-.93.93Z"/>
    <path class="cls-5" d="m56.09,22c-.51,0-.93-.42-.93-.93v-5.12c0-.51.42-.93.93-.93s.93.42.93.93v5.12c0,.51-.42.93-.93.93Z"/>
    <path class="cls-5" d="m68.59,22.26c-.51,0-.93-.42-.93-.93v-5.97c0-.51.42-.93.93-.93s.93.42.93.93v5.97c0,.51-.42.93-.93.93Z"/>
    <path class="cls-5" d="m90.97,21.81c-.51,0-.93-.42-.93-.93v-5.97c0-.51.42-.93.93-.93s.93.42.93.93v5.97c0,.51-.42.93-.93.93Z"/>
    <path class="cls-5" d="m115.95,21.63c-.51,0-.93-.42-.93-.93v-5.97c0-.51.42-.93.93-.93s.93.42.93.93v5.97c0,.51-.42.93-.93.93Z"/>
    <path class="cls-5" d="m141.78,21.63c-.51,0-.93-.42-.93-.93v-5.97c0-.51.42-.93.93-.93s.93.42.93.93v5.97c0,.51-.42.93-.93.93Z"/>
    <path class="cls-5" d="m161.19,22.26c-.51,0-.93-.42-.93-.93v-5.97c0-.51.42-.93.93-.93s.93.42.93.93v5.97c0,.51-.42.93-.93.93Z"/>
    <path class="cls-5" d="m183.56,21.81c-.51,0-.93-.42-.93-.93v-5.97c0-.51.42-.93.93-.93s.93.42.93.93v5.97c0,.51-.42.93-.93.93Z"/>
    <path class="cls-5" d="m204.21,22.19c-.51,0-.93-.42-.93-.93v-5.97c0-.51.42-.93.93-.93s.93.42.93.93v5.97c0,.51-.42.93-.93.93Z"/>
    <path class="cls-5" d="m193.57,22.19c-.51,0-.93-.42-.93-.93v-4.26c0-.51.42-.93.93-.93s.93.42.93.93v4.26c0,.51-.42.93-.93.93Z"/>
    <path class="cls-5" d="m33.36,22c-.51,0-.93-.42-.93-.93v-3.99c0-.51.42-.93.93-.93s.93.42.93.93v3.99c0,.51-.42.93-.93.93Z"/>
    <path class="cls-5" d="m78.6,21.63c-.51,0-.93-.42-.93-.93v-3.15c0-.51.42-.93.93-.93s.93.42.93.93v3.15c0,.51-.42.93-.93.93Z"/>
    <path class="cls-5" d="m100.97,22c-.51,0-.93-.42-.93-.93v-4.05c0-.51.42-.93.93-.93s.93.42.93.93v4.05c0,.51-.42.93-.93.93Z"/>
    <path class="cls-5" d="m125.96,22c-.51,0-.93-.42-.93-.93v-4.11c0-.51.42-.93.93-.93s.93.42.93.93v4.11c0,.51-.42.93-.93.93Z"/>
    <path class="cls-5" d="m148.69,22.06c-.51,0-.93-.42-.93-.93v-4.26c0-.51.42-.93.93-.93s.93.42.93.93v4.26c0,.51-.42.93-.93.93Z"/>
    <path class="cls-5" d="m171.19,21.79c-.51,0-.93-.42-.93-.93v-4.26c0-.51.42-.93.93-.93s.93.42.93.93v4.26c0,.51-.42.93-.93.93Z"/>
    <g>
      <path class="cls-4" d="m43.89,9.55v33.68c0,3.17,2.57,5.73,5.73,5.73h24.91v60.17c0,3.64,2.95,6.58,6.58,6.58h69.68c3.64,0,6.58-2.95,6.58-6.58v-60.17h24.9c3.17,0,5.73-2.57,5.73-5.73V9.55H43.89Zm97.72.62c-.2,14.07-11.64,25.41-25.72,25.41s-25.52-11.34-25.72-25.41c0-.12,0-.25,0-.38h51.45c0,.13,0,.26,0,.38Z"/>
      <path class="cls-5" d="m150.79,117.58h-69.68c-4.66,0-8.44-3.79-8.44-8.44v-58.31h-23.05c-4.19,0-7.6-3.41-7.6-7.6V9.55c0-1.03.83-1.86,1.86-1.86h144.12c1.03,0,1.86.83,1.86,1.86v33.68c0,4.19-3.41,7.6-7.6,7.6h-23.04v58.31c0,4.66-3.79,8.44-8.44,8.44ZM45.75,11.41v31.82c0,2.14,1.74,3.87,3.87,3.87h24.91c1.03,0,1.86.83,1.86,1.86v60.17c0,2.6,2.12,4.72,4.72,4.72h69.68c2.6,0,4.72-2.12,4.72-4.72v-60.17c0-1.03.83-1.86,1.86-1.86h24.9c2.14,0,3.87-1.74,3.87-3.87V11.41h-42.72c-.85,14.46-12.95,26.03-27.53,26.03s-26.69-11.57-27.54-26.03h-42.6Zm46.35.24c.95,12.3,11.33,22.07,23.79,22.07s22.83-9.77,23.79-22.07h-47.58Z"/>
    </g>
    <path class="cls-3" d="m138.42,99.3c-13.55,0-26.11-5.51-36.33-15.93-7.67-7.83-11.3-15.57-11.45-15.9-.43-.93-.02-2.04.91-2.47.93-.43,2.04-.02,2.47.91h0c.14.3,14.11,29.67,44.4,29.67,1.03,0,1.86.83,1.86,1.86s-.83,1.86-1.86,1.86Z"/>
  </g>
  <text class="cls-7" transform="translate(70.7 228.35)"><tspan class="cls-6" x="0" y="0">WE</tspan><tspan class="cls-8" x="21.45" y="0">A</tspan><tspan class="cls-6" x="30.26" y="0">THERFIT</tspan></text>
</svg>