<svg width="24" height="24" viewBox="0 0 24 24" fill="none" xmlns="http://www.w3.org/2000/svg">
<g id="foggy">
<mask id="mask0_72_19" style="mask-type:alpha" maskUnits="userSpaceOnUse" x="0" y="0" width="24" height="24">
<rect id="Bounding box" width="24" height="24" fill="#D9D9D9"/>
</mask>
<g mask="url(#mask0_72_19)">
<path id="foggy_2" d="M18 19C17.7167 19 17.4792 18.9042 17.2875 18.7125C17.0958 18.5208 17 18.2833 17 18C17 17.7167 17.0958 17.4792 17.2875 17.2875C17.4792 17.0958 17.7167 17 18 17C18.2833 17 18.5208 17.0958 18.7125 17.2875C18.9042 17.4792 19 17.7167 19 18C19 18.2833 18.9042 18.5208 18.7125 18.7125C18.5208 18.9042 18.2833 19 18 19ZM7 22C6.71667 22 6.47917 21.9042 6.2875 21.7125C6.09583 21.5208 6 21.2833 6 21C6 20.7167 6.09583 20.4792 6.2875 20.2875C6.47917 20.0958 6.71667 20 7 20C7.28333 20 7.52083 20.0958 7.7125 20.2875C7.90417 20.4792 8 20.7167 8 21C8 21.2833 7.90417 21.5208 7.7125 21.7125C7.52083 21.9042 7.28333 22 7 22ZM6 19C5.71667 19 5.47917 18.9042 5.2875 18.7125C5.09583 18.5208 5 18.2833 5 18C5 17.7167 5.09583 17.4792 5.2875 17.2875C5.47917 17.0958 5.71667 17 6 17H15C15.2833 17 15.5208 17.0958 15.7125 17.2875C15.9042 17.4792 16 17.7167 16 18C16 18.2833 15.9042 18.5208 15.7125 18.7125C15.5208 18.9042 15.2833 19 15 19H6ZM10 22C9.71667 22 9.47917 21.9042 9.2875 21.7125C9.09583 21.5208 9 21.2833 9 21C9 20.7167 9.09583 20.4792 9.2875 20.2875C9.47917 20.0958 9.71667 20 10 20H17C17.2833 20 17.5208 20.0958 17.7125 20.2875C17.9042 20.4792 18 20.7167 18 21C18 21.2833 17.9042 21.5208 17.7125 21.7125C17.5208 21.9042 17.2833 22 17 22H10ZM7.5 16C5.98333 16 4.6875 15.4625 3.6125 14.3875C2.5375 13.3125 2 12.0167 2 10.5C2 9.11667 2.45833 7.90833 3.375 6.875C4.29167 5.84167 5.425 5.23333 6.775 5.05C7.30833 4.1 8.0375 3.35417 8.9625 2.8125C9.8875 2.27083 10.9 2 12 2C13.5 2 14.8042 2.47917 15.9125 3.4375C17.0208 4.39583 17.6917 5.59167 17.925 7.025C19.075 7.125 20.0417 7.6 20.825 8.45C21.6083 9.3 22 10.3167 22 11.5C22 12.75 21.5625 13.8125 20.6875 14.6875C19.8125 15.5625 18.75 16 17.5 16H7.5ZM7.5 14H17.5C18.2 14 18.7917 13.7583 19.275 13.275C19.7583 12.7917 20 12.2 20 11.5C20 10.8 19.7583 10.2083 19.275 9.725C18.7917 9.24167 18.2 9 17.5 9H16V8C16 6.9 15.6083 5.95833 14.825 5.175C14.0417 4.39167 13.1 4 12 4C11.2 4 10.4708 4.21667 9.8125 4.65C9.15417 5.08333 8.65833 5.66667 8.325 6.4L8.075 7H7.45C6.5 7.03333 5.6875 7.3875 5.0125 8.0625C4.3375 8.7375 4 9.55 4 10.5C4 11.4667 4.34167 12.2917 5.025 12.975C5.70833 13.6583 6.53333 14 7.5 14Z" fill="#1C1B1F"/>
</g>
</g>
</svg>
