<svg width="18" height="18" viewBox="0 0 18 18" fill="none" xmlns="http://www.w3.org/2000/svg">
<path id="Vector" d="M12.7163 11H11.9399L11.6648 10.73C12.6278 9.59 13.2076 8.11 13.2076 6.5C13.2076 2.91 10.348 0 6.82007 0C3.29218 0 0.432526 2.91 0.432526 6.5C0.432526 10.09 3.29218 13 6.82007 13C8.40221 13 9.85661 12.41 10.9769 11.43L11.2422 11.71V12.5L16.1557 17.49L17.6199 16L12.7163 11ZM6.82007 11C4.37315 11 2.39792 8.99 2.39792 6.5C2.39792 4.01 4.37315 2 6.82007 2C9.26699 2 11.2422 4.01 11.2422 6.5C11.2422 8.99 9.26699 11 6.82007 11Z" fill="black"/>
</svg>
