<svg width="24" height="24" viewBox="0 0 24 24" fill="none" xmlns="http://www.w3.org/2000/svg">
<g id="storm">
<mask id="mask0_72_67" style="mask-type:alpha" maskUnits="userSpaceOnUse" x="0" y="0" width="24" height="24">
<rect id="Bounding box" width="24" height="24" fill="#D9D9D9"/>
</mask>
<g mask="url(#mask0_72_67)">
<path id="storm_2" d="M18.15 22C18.5667 20.9667 18.8583 19.9083 19.025 18.825C19.1917 17.7417 19.2333 16.65 19.15 15.55C18.5 16.9333 17.5292 18.0208 16.2375 18.8125C14.9458 19.6042 13.5333 20 12 20C10.6 20 9.33332 19.6708 8.19999 19.0125C7.06665 18.3542 6.09999 17.475 5.29999 16.375C4.49999 15.275 3.88332 14.0125 3.44999 12.5875C3.01665 11.1625 2.79999 9.68333 2.79999 8.15C2.79999 7.1 2.87082 6.0625 3.01249 5.0375C3.15415 4.0125 3.39999 3 3.74999 2H5.84999C5.44999 3.03333 5.16249 4.09167 4.98749 5.175C4.81249 6.25833 4.76665 7.35 4.84999 8.45C5.49999 7.06667 6.47082 5.97917 7.76249 5.1875C9.05415 4.39583 10.4667 4 12 4C13.4 4 14.6667 4.32917 15.8 4.9875C16.9333 5.64583 17.9 6.525 18.7 7.625C19.5 8.725 20.1167 9.9875 20.55 11.4125C20.9833 12.8375 21.2 14.3167 21.2 15.85C21.2 16.9 21.1292 17.9375 20.9875 18.9625C20.8458 19.9875 20.6 21 20.25 22H18.15ZM12 18C13.6667 18 15.0833 17.4167 16.25 16.25C17.4167 15.0833 18 13.6667 18 12C18 10.3333 17.4167 8.91667 16.25 7.75C15.0833 6.58333 13.6667 6 12 6C10.3333 6 8.91665 6.58333 7.74999 7.75C6.58332 8.91667 5.99999 10.3333 5.99999 12C5.99999 13.6667 6.58332 15.0833 7.74999 16.25C8.91665 17.4167 10.3333 18 12 18ZM12 16C13.1 16 14.0417 15.6083 14.825 14.825C15.6083 14.0417 16 13.1 16 12C16 10.9 15.6083 9.95833 14.825 9.175C14.0417 8.39167 13.1 8 12 8C10.9 8 9.95832 8.39167 9.17499 9.175C8.39165 9.95833 7.99999 10.9 7.99999 12C7.99999 13.1 8.39165 14.0417 9.17499 14.825C9.95832 15.6083 10.9 16 12 16ZM12 14C11.45 14 10.9792 13.8042 10.5875 13.4125C10.1958 13.0208 9.99999 12.55 9.99999 12C9.99999 11.45 10.1958 10.9792 10.5875 10.5875C10.9792 10.1958 11.45 10 12 10C12.55 10 13.0208 10.1958 13.4125 10.5875C13.8042 10.9792 14 11.45 14 12C14 12.55 13.8042 13.0208 13.4125 13.4125C13.0208 13.8042 12.55 14 12 14Z" fill="#1C1B1F"/>
</g>
</g>
</svg>
